<?xml version="1.0" encoding="utf-8"?>
<svg version="1.1" width="30px" height="30px"  id="1" xmlns="http://www.w3.org/2000/svg" xmlns:xlink="http://www.w3.org/1999/xlink" x="0px" y="0px"
	 viewBox="0 0 30 30" style="enable-background:new 0 0 30 30;" xml:space="preserve">
<style type="text/css">
	.st0{fill:#454749;}
	.st1{fill:#FFFFFF;}
	.st2{fill:#FFFFFF;stroke:#FFFFFF;stroke-width:0.25;stroke-miterlimit:10;}
	.st3{fill:#FFFFFF;stroke:#FFFFFF;stroke-width:0.5;stroke-linecap:round;stroke-linejoin:round;stroke-miterlimit:10;}
	.st4{enable-background:new    ;}
	.st5{clip-path:url(#XMLID_25_);enable-background:new    ;}
	.st6{fill:#858585;}
	.st7{fill:#8A8A8A;}
	.st8{fill:#8F8F8F;}
	.st9{fill:#949494;}
	.st10{fill:#999999;}
	.st11{fill:#9E9E9E;}
	.st12{fill:#A3A3A3;}
	.st13{clip-path:url(#XMLID_26_);enable-background:new    ;}
	.st14{fill:#848484;}
	.st15{clip-path:url(#XMLID_38_);enable-background:new    ;}
	.st16{clip-path:url(#XMLID_55_);enable-background:new    ;}
	.st17{fill:#B2B2B2;}
	.st18{clip-path:url(#XMLID_73_);enable-background:new    ;}
	.st19{clip-path:url(#XMLID_98_);enable-background:new    ;}
	.st20{fill:#B1B1B1;}
	.st21{clip-path:url(#XMLID_118_);enable-background:new    ;}
	.st22{clip-path:url(#XMLID_123_);enable-background:new    ;}
	.st23{fill:#9C9C9C;}
	.st24{clip-path:url(#XMLID_164_);enable-background:new    ;}
	.st25{fill:#959595;}
	.st26{clip-path:url(#XMLID_166_);enable-background:new    ;}
	.st27{fill:#838383;}
	.st28{clip-path:url(#XMLID_169_);enable-background:new    ;}
	.st29{fill:#A7A7A7;}
	.st30{clip-path:url(#XMLID_184_);enable-background:new    ;}
	.st31{clip-path:url(#XMLID_187_);enable-background:new    ;}
	.st32{clip-path:url(#XMLID_188_);enable-background:new    ;}
	.st33{clip-path:url(#XMLID_189_);enable-background:new    ;}
	.st34{clip-path:url(#XMLID_190_);enable-background:new    ;}
	.st35{clip-path:url(#XMLID_203_);enable-background:new    ;}
	.st36{clip-path:url(#XMLID_221_);enable-background:new    ;}
	.st37{clip-path:url(#XMLID_249_);enable-background:new    ;}
	.st38{clip-path:url(#XMLID_252_);enable-background:new    ;}
	.st39{clip-path:url(#XMLID_261_);enable-background:new    ;}
	.st40{clip-path:url(#XMLID_262_);enable-background:new    ;}
	.st41{clip-path:url(#XMLID_278_);enable-background:new    ;}
	.st42{clip-path:url(#XMLID_279_);enable-background:new    ;}
	.st43{clip-path:url(#XMLID_280_);enable-background:new    ;}
	.st44{clip-path:url(#XMLID_281_);enable-background:new    ;}
	.st45{fill:#AFAFAF;}
	.st46{clip-path:url(#XMLID_282_);enable-background:new    ;}
	.st47{clip-path:url(#XMLID_283_);enable-background:new    ;}
	.st48{clip-path:url(#XMLID_284_);enable-background:new    ;}
	.st49{clip-path:url(#XMLID_285_);enable-background:new    ;}
	.st50{clip-path:url(#XMLID_286_);enable-background:new    ;}
	.st51{clip-path:url(#XMLID_287_);enable-background:new    ;}
	.st52{clip-path:url(#XMLID_288_);enable-background:new    ;}
	.st53{clip-path:url(#XMLID_289_);enable-background:new    ;}
	.st54{clip-path:url(#XMLID_293_);enable-background:new    ;}
	.st55{clip-path:url(#XMLID_294_);enable-background:new    ;}
	.st56{clip-path:url(#XMLID_295_);enable-background:new    ;}
	.st57{clip-path:url(#XMLID_298_);enable-background:new    ;}
	.st58{fill:#FFFFFF;stroke:#FFFFFF;stroke-width:0.5;stroke-linejoin:round;stroke-miterlimit:10;}
	.st59{fill:#FFFFFF;stroke:#FFFFFF;stroke-width:0.1;stroke-miterlimit:10;}
	.st60{fill:none;}
</style>
<path id="XMLID_400_" class="st0" d="M25,30H5c-2.8,0-5-2.2-5-5V5c0-2.8,2.2-5,5-5h20c2.8,0,5,2.2,5,5v20C30,27.8,27.8,30,25,30z"/>
<g>
	<path class="st1" d="M6.4,19v-6.7H4V11h6.4v1.4H8V19H6.4z"/>
	<path class="st1" d="M16.7,16.1l1.6,0.5c-0.2,0.9-0.6,1.5-1.2,2c-0.6,0.4-1.3,0.6-2.1,0.6c-1.1,0-2-0.4-2.6-1.1c-0.7-0.7-1-1.7-1-3
		c0-1.3,0.3-2.4,1-3.1c0.7-0.7,1.6-1.1,2.7-1.1c1,0,1.8,0.3,2.4,0.9c0.4,0.3,0.6,0.8,0.8,1.5l-1.6,0.4c-0.1-0.4-0.3-0.7-0.6-1
		c-0.3-0.2-0.7-0.4-1.1-0.4c-0.6,0-1.1,0.2-1.5,0.6C13.2,13.3,13,14,13,15c0,1,0.2,1.7,0.5,2.2c0.4,0.4,0.8,0.6,1.4,0.6
		c0.4,0,0.8-0.1,1.1-0.4C16.4,17.1,16.6,16.7,16.7,16.1z"/>
	<path class="st1" d="M19.8,19V11h2.6c1,0,1.6,0,1.9,0.1c0.5,0.1,0.8,0.4,1.2,0.8c0.3,0.4,0.5,0.9,0.5,1.6c0,0.5-0.1,0.9-0.3,1.2
		c-0.2,0.3-0.4,0.6-0.7,0.8s-0.6,0.3-0.8,0.4c-0.4,0.1-1,0.1-1.7,0.1h-1.1v3H19.8z M21.5,12.3v2.3h0.9c0.6,0,1.1,0,1.3-0.1
		c0.2-0.1,0.4-0.2,0.5-0.4c0.1-0.2,0.2-0.4,0.2-0.6c0-0.3-0.1-0.5-0.3-0.7c-0.2-0.2-0.4-0.3-0.7-0.4c-0.2,0-0.6-0.1-1.2-0.1H21.5z"
		/>
</g>
</svg>
