<?xml version="1.0" encoding="utf-8"?>
<!-- Uploaded to: SVG Repo, www.svgrepo.com, Generator: SVG Repo Mixer Tools -->
<svg fill="#000000" width="30px" height="30px" viewBox="-4 0 32 32" version="1.1" xmlns="http://www.w3.org/2000/svg">
<title>sync</title>
<path d="M17.594 16h2.031c0-1.813-0.688-3.531-1.75-4.844h-0.031c-0.781-0.938-1.719-1.656-2.844-2.125-0.031 0-0.063-0.031-0.063-0.031-0.188-0.063-0.375-0.188-0.563-0.25-0.063 0-0.094-0.031-0.156-0.031-0.156-0.063-0.375-0.094-0.531-0.125-0.063-0.031-0.156-0.063-0.219-0.063-0.188-0.031-0.344-0.063-0.531-0.094h-0.188c-0.219-0.031-0.469-0.031-0.688-0.031-1.563-0.031-3.094 0.438-4.406 1.344-0.531 0.375-1.344 0.25-1.688-0.281-0.375-0.531-0.219-1.281 0.313-1.656 1.688-1.188 3.656-1.813 5.688-1.813 0.031 0 0.031-0.031 0.031-0.031 0.063 0 0.094 0.031 0.125 0.031 0.281 0 0.563 0 0.813 0.031 0.125 0 0.219 0.031 0.344 0.031 0.125 0.031 0.281 0.031 0.438 0.063 0.063 0 0.125 0.031 0.188 0.031 0.094 0.031 0.25 0.094 0.375 0.125 0.188 0.031 0.406 0.094 0.594 0.156 0.094 0.031 0.188 0.063 0.25 0.094 0.25 0.063 0.5 0.156 0.719 0.25 0.063 0 0.094 0.031 0.125 0.031 1.438 0.625 2.719 1.563 3.75 2.813 0 0.031 0.031 0.031 0.031 0.063 0.156 0.188 0.313 0.406 0.438 0.594 0.031 0 0.031 0.031 0.031 0.063 1.125 1.625 1.813 3.531 1.813 5.656h1.969l-3.188 4.781zM0 16l3.188-4.813 3.219 4.813h-2.031c0 1.781 0.656 3.406 1.719 4.719 0.031 0.031 0.031 0.063 0.063 0.094 0.156 0.188 0.313 0.375 0.469 0.531v0.031c0.5 0.5 1.094 0.938 1.719 1.281 0.031 0 0.031 0.031 0.031 0.031 0.188 0.094 0.406 0.188 0.594 0.25 0.031 0.031 0.094 0.063 0.125 0.063 0.156 0.063 0.313 0.125 0.5 0.188 0.063 0.031 0.125 0.063 0.219 0.063 0.125 0.063 0.313 0.094 0.469 0.125 0.094 0.031 0.188 0.031 0.281 0.063 0.156 0.031 0.313 0.063 0.469 0.063 0.094 0.031 0.156 0.031 0.25 0.031 0.188 0.031 0.438 0.031 0.625 0.031 1.594 0.031 3.125-0.438 4.438-1.375 0.531-0.344 1.344-0.188 1.688 0.344 0.375 0.531 0.219 1.281-0.313 1.656-1.688 1.188-3.656 1.813-5.688 1.813-0.344 0-0.688-0.031-1.031-0.063-0.063 0-0.125-0.031-0.188-0.031-0.188-0.031-0.344-0.031-0.531-0.063-0.063-0.031-0.125-0.031-0.156-0.031-0.125-0.031-0.313-0.063-0.438-0.094-0.188-0.063-0.375-0.094-0.563-0.156-0.094-0.031-0.188-0.063-0.313-0.094-0.188-0.063-0.438-0.156-0.656-0.25-0.063 0-0.125-0.031-0.156-0.063-0.25-0.125-0.531-0.25-0.75-0.375-0.031 0-0.063-0.031-0.063-0.031-0.844-0.438-1.563-1-2.25-1.688 0-0.031-0.031-0.031-0.031-0.063-0.188-0.188-0.406-0.406-0.594-0.625-0.063-0.031-0.094-0.125-0.125-0.188l-0.375-0.469c0-0.031-0.031-0.031-0.031-0.063-1.125-1.594-1.813-3.531-1.813-5.656h-1.969z"></path>
</svg>